<svg width="705" height="462" viewBox="0 0 705 462" fill="none" xmlns="http://www.w3.org/2000/svg">
<g clip-path="url(#clip0)">
<path d="M338.967 5.39354L282.207 259.241L638.025 386.495L694.785 132.647L338.967 5.39354Z" fill="#33312B"/>
<path d="M345.114 19.7377C346.741 19.7377 348.061 18.0691 348.061 16.0108C348.061 13.9524 346.741 12.2838 345.114 12.2838C343.486 12.2838 342.167 13.9524 342.167 16.0108C342.167 18.0691 343.486 19.7377 345.114 19.7377Z" fill="white"/>
<path d="M354.188 22.983C355.816 22.983 357.135 21.3144 357.135 19.256C357.135 17.1977 355.816 15.5291 354.188 15.5291C352.561 15.5291 351.241 17.1977 351.241 19.256C351.241 21.3144 352.561 22.983 354.188 22.983Z" fill="white"/>
<path d="M363.262 26.2283C364.89 26.2283 366.209 24.5597 366.209 22.5013C366.209 20.443 364.89 18.7744 363.262 18.7744C361.635 18.7744 360.316 20.443 360.316 22.5013C360.316 24.5597 361.635 26.2283 363.262 26.2283Z" fill="white"/>
<path d="M527.804 166.469C523.041 165.33 518.141 165.476 513.425 166.898C514.798 160.936 515.145 154.67 514.442 148.524C509.586 150.747 505.191 154.333 501.589 159.013C500.458 152.64 498.2 146.675 494.983 141.565C491.839 146.335 489.54 151.902 488.241 157.891C484.812 153.557 480.699 150.187 476.169 148.003C476.169 148.003 474.023 161.806 479.19 173.133C483.789 183.214 492.624 187.932 494.513 188.848L494.557 188.916L494.581 188.882C494.772 188.973 494.88 189.02 494.88 189.02C494.88 189.02 494.92 188.755 494.976 188.282C495.01 188.229 495.044 188.175 495.082 188.116C495.089 188.191 495.096 188.26 495.103 188.327C494.955 188.768 494.88 189.02 494.88 189.02C494.88 189.02 494.991 189.051 495.192 189.1L495.198 189.145L495.263 189.117C497.252 189.587 506.732 191.42 514.824 185.877C523.916 179.65 527.804 166.469 527.804 166.469Z" fill="white"/>
<path d="M510.17 131.208C514.401 131.208 517.832 126.87 517.832 121.518C517.832 116.166 514.401 111.828 510.17 111.828C505.938 111.828 502.508 116.166 502.508 121.518C502.508 126.87 505.938 131.208 510.17 131.208Z" fill="#B0A2FD"/>
<path d="M606.374 247.329L376.116 164.98L374.699 171.316L604.957 253.665L606.374 247.329Z" fill="#B0A2FD"/>
<path d="M430.31 218.445L390.611 204.247L379.384 254.455L419.084 268.653L430.31 218.445Z" fill="white"/>
<path d="M504.038 244.813L464.339 230.615L453.112 280.823L492.812 295.021L504.038 244.813Z" fill="white"/>
<path d="M577.766 271.181L538.067 256.983L526.84 307.191L566.54 321.389L577.766 271.181Z" fill="white"/>
<path d="M411.734 276.87L382.243 266.322L381.281 270.626L410.772 281.173L411.734 276.87Z" fill="#B0A2FD"/>
<path d="M485.462 303.238L455.971 292.69L455.009 296.994L484.5 307.541L485.462 303.238Z" fill="#B0A2FD"/>
<path d="M559.19 329.605L529.699 319.058L528.737 323.362L558.228 333.909L559.19 329.605Z" fill="#B0A2FD"/>
<path d="M232.378 357.479C341.308 357.479 429.614 353.35 429.614 348.257C429.614 343.163 341.308 339.034 232.378 339.034C123.447 339.034 35.1415 343.163 35.1415 348.257C35.1415 353.35 123.447 357.479 232.378 357.479Z" fill="#B0A2FD"/>
<path d="M582.8 462C667.594 462 736.333 457.93 736.333 452.91C736.333 447.889 667.594 443.819 582.8 443.819C498.006 443.819 429.267 447.889 429.267 452.91C429.267 457.93 498.006 462 582.8 462Z" fill="#B0A2FD"/>
<path d="M507.492 381.194H551.771V404.613H526.009V428.033H551.773V451.451H507.492V381.194ZM560.628 381.194H604.909V401.558H579.146V405.631H604.909V452.47H560.629V431.085H586.392V427.012H560.627V381.194H560.628ZM613.766 381.194H658.046V401.558H632.284V405.631H658.046V452.47H613.766V431.085H639.529V427.012H613.767V381.194H613.766Z" fill="#33312B"/>
<path d="M120.488 274.038H138.755V296.862H155.465V274.038H173.733V343.156H155.466V320.011H138.756V343.156H120.489V274.038H120.488ZM197.753 296.959H181.674V274.038H232.112V296.959H216.023V343.156H197.756V296.959H197.753ZM240.117 274.038H259.163L270.88 298.324L282.585 274.038H301.639V343.156H283.447V308.897L270.88 333.473H270.565L257.989 308.897V343.156H240.117V274.038ZM310.73 274.038H329.002V320.31H354.691V343.156H310.729V274.038H310.73Z" fill="#33312B"/>
<path d="M88.2243 321.548L86.7256 343.038L98.7195 341.773V323.444L88.2243 321.548Z" fill="#71523B"/>
<path d="M77.2299 321.548L78.7293 343.038L66.7354 341.773V323.444L77.2299 321.548Z" fill="#71523B"/>
<path d="M108.715 156.584C108.715 156.584 112.713 186.922 112.713 191.347C112.713 195.771 111.213 224.213 108.715 229.901C106.216 235.59 105.716 238.118 106.716 240.646C107.715 243.174 107.215 242.542 106.716 244.438C106.216 246.335 105.216 245.703 106.716 248.231C107.328 249.344 107.656 250.667 107.656 252.023C107.656 253.379 107.328 254.702 106.716 255.815C105.716 257.711 108.715 308.907 104.717 312.699C100.719 316.491 99.719 329.132 99.719 329.132L86.7253 327.236V313.331C86.7253 313.331 83.7268 303.219 85.7258 296.898C87.7249 290.578 88.7244 257.079 88.7244 257.079C88.7244 257.079 88.2246 253.919 88.7244 252.023C89.2241 250.127 88.7244 248.863 87.7249 248.231C86.7253 247.599 86.2256 245.071 86.2256 245.071L84.7263 198.931L78.7292 244.438C78.7292 244.438 84.7263 306.379 78.7292 314.595V329.132H65.7355L67.7345 313.331C67.7345 313.331 63.7365 298.794 65.7355 295.634C67.7345 292.474 59.7384 241.91 60.7379 240.014C61.7374 238.118 61.2377 237.486 60.7379 236.222C60.2382 234.958 58.7389 233.694 59.2387 232.43C59.7384 231.166 59.2387 228.637 59.2387 228.637C59.2387 228.637 49.7433 169.225 54.2411 163.537C58.7389 157.848 108.715 156.584 108.715 156.584Z" fill="#33312B"/>
<path d="M89.7239 334.821C89.7239 334.821 90.7234 328.759 98.7196 330.842C98.7196 330.842 100.719 336.085 100.719 338.613C100.719 341.141 102.718 358.206 102.718 358.206C102.718 358.206 110.714 375.272 100.719 375.272C90.7234 375.272 87.2251 370.847 86.7254 366.423C86.2256 361.999 87.2251 360.735 85.2261 358.838C83.2271 356.942 82.2276 356.942 82.7273 354.414C83.2271 351.886 84.2266 339.245 84.2266 339.245C84.2266 339.245 84.7264 329.764 87.475 332.293L90.2237 334.821" fill="#3F3D56"/>
<path d="M75.7307 334.821C75.7307 334.821 74.7312 328.759 66.735 330.842C66.735 330.842 64.736 336.085 64.736 338.613C64.736 341.141 62.737 358.206 62.737 358.206C62.737 358.206 54.7409 375.272 64.736 375.272C74.7312 375.272 78.2295 370.847 78.7292 366.423C79.229 361.999 78.2295 360.735 80.2285 358.838C82.2275 356.942 83.2271 356.942 82.7273 354.414C82.2275 351.886 81.228 339.245 81.228 339.245C81.228 339.245 80.7283 329.764 77.9796 332.293L75.2309 334.821" fill="#3F3D56"/>
<path d="M90.2237 40.2883C97.6759 40.2883 103.717 32.648 103.717 23.2231C103.717 13.7983 97.6759 6.15791 90.2237 6.15791C82.7715 6.15791 76.7302 13.7983 76.7302 23.2231C76.7302 32.648 82.7715 40.2883 90.2237 40.2883Z" fill="#71523B"/>
<path d="M79.2289 25.7513C79.2289 25.7513 73.7316 52.9292 72.732 53.5612C71.7325 54.1932 95.7209 56.7214 95.7209 56.7214C95.7209 56.7214 89.7238 33.3358 95.7209 29.5435L79.2289 25.7513Z" fill="#71523B"/>
<path d="M75.7182 42.3133L75.7175 42.3098L59.2386 56.7214L62.2372 169.857C62.2372 169.857 84.2265 166.697 89.2241 167.329C94.2217 167.961 110.214 161.641 110.214 161.641L103.209 55.3317C103.072 53.2545 102.352 51.3076 101.179 49.8431C100.007 48.3786 98.4581 47.4929 96.814 47.3463L93.8126 47.0786C93.8126 47.0786 90.8142 56.4673 81.7931 51.6237C80.2721 50.7869 78.929 49.5074 77.8733 47.8894C76.8175 46.2714 76.0791 44.3608 75.7182 42.3133Z" fill="white"/>
<path d="M76.1167 41.2814L55.7404 53.5612L51.7423 126.246C51.7423 126.246 43.7462 169.857 50.2431 182.498C56.7399 195.139 67.7346 196.403 67.7346 196.403C67.7346 196.403 82.2275 123.718 78.2295 99.0684C74.2314 74.4187 76.1167 41.2814 76.1167 41.2814Z" fill="#33312B"/>
<path d="M37.7491 150.896V160.377C37.7491 160.377 34.7506 181.234 44.246 180.602C53.7413 179.97 49.2435 157.848 49.2435 157.848L46.245 150.896H37.7491Z" fill="#71523B"/>
<path d="M125.706 169.857L124.707 180.602C124.707 180.602 129.705 202.092 120.209 202.724C110.714 203.356 117.606 180.734 117.606 180.734L120.709 168.593L125.706 169.857Z" fill="#71523B"/>
<path d="M93.5119 44.8697C102.618 47.7064 111.056 53.254 118.124 61.0504L118.21 61.1457L111.213 107.917L110.214 124.982C110.214 124.982 128.705 208.412 107.215 196.403C107.215 196.403 88.7244 123.718 91.2232 90.2197C93.722 56.7214 93.5119 44.8697 93.5119 44.8697Z" fill="#33312B"/>
<path d="M111.713 60.5137C112.213 59.8816 118.21 61.392 118.21 61.392C118.21 61.392 129.205 110.445 129.205 118.662C129.205 126.878 130.704 173.65 130.704 173.65L117.512 175.331L106.834 110.347L111.713 60.5137Z" fill="#33312B"/>
<path d="M59.2386 53.5612H55.7403C55.7403 53.5612 45.7452 58.6176 45.2454 64.306C44.7457 69.9944 31.2522 127.51 31.2522 127.51L34.7505 156.584L47.7442 154.056L50.243 121.822L63.2367 86.4275L59.2386 53.5612Z" fill="#33312B"/>
<path d="M87.6022 27.9858L88.1196 23.4248C88.2401 22.3617 88.7321 20.9639 89.5499 21.253C90.2455 21.4989 91.761 22.252 92.0148 22.0246C92.965 21.1733 94.4029 22.6619 95.4021 21.9056C95.8207 21.5888 96.0938 20.91 96.5804 20.8647C96.9069 20.891 97.2145 21.0673 97.4454 21.3603C98.094 22.0737 98.8583 22.5987 99.6845 22.8987C100.099 23.0414 100.536 23.0413 100.951 22.8985C101.365 22.7556 101.742 22.4751 102.042 22.086C102.148 21.8788 102.29 21.7058 102.459 21.5807C102.656 21.5087 102.867 21.521 103.058 21.6156L105.611 22.4947C105.987 20.7729 106.064 18.9689 105.837 17.2059C105.611 15.443 105.086 13.7627 104.299 12.2799C103.263 10.5019 102.007 8.9467 100.58 7.67421C98.999 6.15302 97.3674 4.72222 95.6851 3.38182C93.9017 1.78593 91.8772 0.672053 89.7382 0.10971C87.5853 -0.303763 85.1746 0.435978 83.8204 2.59274C83.1834 2.0097 82.7046 1.19171 82.4497 0.250969C82.2979 0.425685 82.1782 0.640435 82.0991 0.880042C82.0201 1.11965 81.9836 1.37827 81.9922 1.63767C82.0009 1.89707 82.0544 2.1509 82.1491 2.38126C82.2438 2.61162 82.3773 2.8129 82.5402 2.97087L80.381 1.22708C79.774 2.03309 80.9599 3.49465 80.4428 4.39529C80.2864 4.61805 80.0856 4.78379 79.8615 4.87529C78.6891 5.4532 77.6146 6.30852 76.6955 7.39543C75.5319 9.07202 74.6799 11.0569 74.2021 13.2043C72.9155 17.8726 71.9804 23.2262 73.8084 27.596C74.0157 28.0914 76.7513 36.2682 77.1157 36.587C78.3478 37.6649 77.5458 35.0564 78.4286 36.587C79.1208 37.7873 78.9913 33.1934 80.0201 34.2017C80.4235 34.5667 80.9018 34.776 81.3973 34.8042C81.8928 34.8324 82.3841 34.6783 82.8117 34.3605C83.2383 33.9864 83.1008 31.9089 82.8707 30.0011C82.8267 29.6377 82.8538 29.2662 82.9497 28.9192C83.0456 28.5721 83.2074 28.2602 83.4208 28.0106C83.6342 27.761 83.8928 27.5814 84.1738 27.4876C84.4549 27.3938 84.7499 27.3886 85.0329 27.4725C86.3143 27.8537 87.5803 28.1794 87.6022 27.9858Z" fill="black"/>
<path opacity="0.2" d="M112.963 117.713L118.46 175.23H114.962L112.963 117.713Z" fill="black"/>
<path opacity="0.2" d="M54.9908 95.5919L52.2114 117.713L57.4896 95.5919H55.9902H54.9908Z" fill="black"/>
</g>
<defs>
<clipPath id="clip0">
<rect width="705" height="462" fill="white"/>
</clipPath>
</defs>
</svg>
